<?xml version="1.0" encoding="UTF-8"?> <svg xmlns="http://www.w3.org/2000/svg" id="Capa_1" version="1.1" viewBox="0 0 57 60"><defs><style> .st0 { fill: #fff; } .st1 { fill: #f5a9aa; } </style></defs><rect class="st0" x="6.9" y="6.9" width="41.8" height="41.8"></rect><path class="st1" d="M51.4,10.7c-.7-3.3-3.4-5.5-6.9-5.5H11.2c-.6,0-1.2,0-1.8.2-3.2.8-5.3,3.4-5.3,6.8v33.3c0,.5,0,.9.1,1.4.5,3.1,3.4,5.5,6.6,5.5h34.4c.9,0,1.6-.2,2.4-.5,2.8-1.4,4.1-3.7,4.1-6.8V12.5c0-.6,0-1.2-.2-1.8ZM36.5,36.8c.7-.7,1.9-.7,2.6,0l3.9,3.9c.7.7.7,1.9,0,2.6-.7.7-1.9.7-2.6,0l-3.9-3.9c-.7-.7-.7-1.9,0-2.6ZM45.3,30c-.2.8-.9,1.2-1.6,1.4-1.9.6-3.8,1.1-5.7,1.7-2.7.8-4.3,2.6-5.2,5.3-.6,1.9-1.2,3.7-1.8,5.5-.5,1.6-1.8,1.8-2.9.6-.1-.1-.2-.2-.3-.4-1-1.4-2-2.8-3-4.2-.8-1.3-1.8-2.3-3-2.9h0c-1.2-.6-2.6-.8-4.2-.8-1.7,0-3.4,0-5.2,0-.2,0-.3,0-.5,0-1.7-.2-2.2-1.4-1.2-2.7,1.1-1.6,2.3-3.1,3.5-4.7,1.7-2.2,2.1-4.6,1.3-7.3-.6-1.9-1.2-3.8-1.9-5.6-.2-.7-.4-1.5.2-2.1.6-.6,1.4-.4,2.1-.2,2.2.6,4.3,1.6,6.5,2.1,2.3.5,4.4,0,6.3-1.3,1.5-1.1,3-2.2,4.4-3.3.2-.1.4-.3.6-.4.7-.4,1.3-.5,1.7-.2h0c.5.2.8.8.8,1.6,0,.2,0,.5,0,.7,0,1.8-.1,3.7-.1,5.5,0,2.3.8,4.3,2.5,5.9,1.7,1.5,3.7,2.7,5.5,4.1.6.4,1.2,1,1,1.8Z"></path></svg> 